<svg width="11" height="13" viewBox="0 0 11 13" fill="none" xmlns="http://www.w3.org/2000/svg">
<path d="M5.568 12.192C4.61867 12.192 3.792 12.0053 3.088 11.632C2.384 11.2587 1.84 10.7147 1.456 10C1.072 9.27467 0.88 8.384 0.88 7.328V5.472C0.88 4.416 1.072 3.53067 1.456 2.816C1.84 2.09067 2.384 1.54133 3.088 1.168C3.792 0.794666 4.61867 0.608 5.568 0.608H5.84C6.78933 0.608 7.616 0.794666 8.32 1.168C9.024 1.54133 9.56267 2.09067 9.936 2.816C10.32 3.53067 10.512 4.416 10.512 5.472V7.328C10.512 8.384 10.32 9.27467 9.936 10C9.56267 10.7147 9.024 11.2587 8.32 11.632C7.616 12.0053 6.78933 12.192 5.84 12.192H5.568ZM5.6 10.896H5.808C6.864 10.896 7.68 10.6027 8.256 10.016C8.84267 9.41867 9.136 8.528 9.136 7.344V5.456C9.136 4.272 8.84267 3.38667 8.256 2.8C7.68 2.20267 6.864 1.904 5.808 1.904H5.6C4.53333 1.904 3.70667 2.20267 3.12 2.8C2.544 3.38667 2.256 4.272 2.256 5.456V7.344C2.256 8.528 2.544 9.41867 3.12 10.016C3.70667 10.6027 4.53333 10.896 5.6 10.896ZM5.76 9.696C5.056 9.696 4.496 9.488 4.08 9.072C3.664 8.64533 3.456 8.03733 3.456 7.248V5.552C3.456 4.752 3.664 4.13867 4.08 3.712C4.50667 3.28533 5.06133 3.072 5.744 3.072C6.49067 3.072 7.05067 3.28533 7.424 3.712C7.79733 4.128 7.984 4.672 7.984 5.344V5.616H6.672V5.248C6.672 4.97067 6.59733 4.74667 6.448 4.576C6.30933 4.39467 6.08 4.304 5.76 4.304C5.46133 4.304 5.22133 4.39467 5.04 4.576C4.86933 4.74667 4.784 4.992 4.784 5.312V7.488C4.784 7.79733 4.87467 8.03733 5.056 8.208C5.23733 8.37867 5.472 8.464 5.76 8.464C6.05867 8.464 6.28267 8.384 6.432 8.224C6.592 8.05333 6.672 7.81333 6.672 7.504V7.168H7.984V7.424C7.984 8.10667 7.79733 8.656 7.424 9.072C7.06133 9.488 6.50667 9.696 5.76 9.696Z" fill="#878C92"/>
</svg>
